<svg xmlns="http://www.w3.org/2000/svg" height="24" viewBox="0 -960 960 960" width="24" fill="#ffffff"><path d="M480-120q-75 0-127.5-52.5T300-300v-40h-60q-17 0-28.5-11.5T200-380q0-17 11.5-28.5T240-420h60v-80h-60q-17 0-28.5-11.5T200-540q0-17 11.5-28.5T240-580h60v-40q0-29 9-55t26-47l-51-51q-12-12-12-28t12-28q12-12 28-12t28 12l58 58q38-19 82-19t82 19l58-58q12-12 28-12t28 12q12 12 12 28t-12 28l-51 51q17 21 26 47t9 55v40h60q17 0 28.5 11.5T760-540q0 17-11.5 28.5T720-500h-60v80h60q17 0 28.5 11.5T760-380q0 17-11.5 28.5T720-340h-60v40q0 75-52.5 127.5T480-120Zm-80-340h160v-160q0-33-23.5-56.5T480-700q-33 0-56.5 23.5T400-620v160Z"/></svg>
